<?xml version="1.0" encoding="utf-8"?>
<svg width="96" height="96" viewBox="0 0 96 96" fill="none" xmlns="http://www.w3.org/2000/svg">
<circle cx="48" cy="48" r="48" fill="#DBB180"/>
<path d="M44 62H50V68H44V62ZM48 28C58.7 28.44 63.36 39.24 57 47.34C55.34 49.34 52.66 50.66 51.34 52.34C50 54 50 56 50 58H44C44 54.66 44 51.84 45.34 49.84C46.66 47.84 49.34 46.66 51 45.34C55.84 40.86 54.64 34.52 48 34C46.4087 34 44.8826 34.6321 43.7574 35.7574C42.6321 36.8826 42 38.4087 42 40H36C36 36.8174 37.2643 33.7652 39.5147 31.5147C41.7652 29.2643 44.8174 28 48 28Z" fill="white"/>
</svg>
