<?xml version="1.0" encoding="utf-8"?>
<svg width="45" height="45" viewBox="0 0 45 45" fill="none" xmlns="http://www.w3.org/2000/svg">
<path d="M40.7812 7.03125H4.21875C3.44092 7.03125 2.8125 7.65967 2.8125 8.4375V36.5625C2.8125 37.3403 3.44092 37.9688 4.21875 37.9688H40.7812C41.5591 37.9688 42.1875 37.3403 42.1875 36.5625V8.4375C42.1875 7.65967 41.5591 7.03125 40.7812 7.03125ZM37.2305 11.8169L23.3657 22.6055C23.0229 22.8735 22.5439 22.8735 22.2012 22.6055L8.33203 11.8169C8.27975 11.7765 8.2414 11.7209 8.22237 11.6576C8.20333 11.5944 8.20456 11.5268 8.22587 11.4643C8.24719 11.4018 8.28754 11.3475 8.34125 11.3091C8.39496 11.2706 8.45935 11.25 8.52539 11.25H37.0371C37.1031 11.25 37.1675 11.2706 37.2213 11.3091C37.275 11.3475 37.3153 11.4018 37.3366 11.4643C37.3579 11.5268 37.3592 11.5944 37.3401 11.6576C37.3211 11.7209 37.2828 11.7765 37.2305 11.8169Z" fill="#757575"/>
</svg>
