<?xml version="1.0" encoding="utf-8"?>
<svg width="47" height="47" viewBox="0 0 47 47" fill="none" xmlns="http://www.w3.org/2000/svg">
<path d="M40.3906 5.14062H6.60938C5.79697 5.14062 5.14062 5.79697 5.14062 6.60938V40.3906C5.14062 41.203 5.79697 41.8594 6.60938 41.8594H40.3906C41.203 41.8594 41.8594 41.203 41.8594 40.3906V6.60938C41.8594 5.79697 41.203 5.14062 40.3906 5.14062ZM36.1496 15.8579H33.2167C30.9172 15.8579 30.472 16.9503 30.472 18.5567V22.0955H35.9614L35.2454 27.6354H30.472V41.8594H24.7484V27.64H19.9612V22.0955H24.7484V18.0105C24.7484 13.2692 27.6446 10.6852 31.8765 10.6852C33.9052 10.6852 35.6447 10.8366 36.1542 10.9055V15.8579H36.1496Z" fill="#878787"/>
</svg>
