<?xml version="1.0" encoding="utf-8"?>
<svg width="96" height="96" viewBox="0 0 96 96" fill="none" xmlns="http://www.w3.org/2000/svg">
<circle cx="48" cy="48" r="48" fill="#DBB180"/>
<path d="M71.8374 42.124L49.7139 20.0166C49.5546 19.857 49.3654 19.7304 49.1571 19.644C48.9488 19.5576 48.7255 19.5131 48.5 19.5131C48.2745 19.5131 48.0512 19.5576 47.8429 19.644C47.6346 19.7304 47.4454 19.857 47.2861 20.0166L25.1626 42.124C24.5181 42.7685 24.1528 43.644 24.1528 44.5571C24.1528 46.4531 25.6943 47.9946 27.5903 47.9946H29.9214V63.7695C29.9214 64.7202 30.6895 65.4883 31.6401 65.4883H45.0625V53.457H51.0781V65.4883H65.3599C66.3106 65.4883 67.0786 64.7202 67.0786 63.7695V47.9946H69.4097C70.3228 47.9946 71.1982 47.6348 71.8428 46.9848C73.1802 45.6421 73.1802 43.4668 71.8374 42.124Z" fill="white"/>
</svg>
