<?xml version="1.0" encoding="utf-8"?>
<svg width="47" height="47" viewBox="0 0 47 47" fill="none" xmlns="http://www.w3.org/2000/svg">
<path d="M23.5 47C19.2467 47 15.3148 45.952 11.7041 43.856C8.09342 41.7599 5.24007 38.9066 3.14404 35.2959C1.04801 31.6852 0 27.7533 0 23.5C0 19.2467 1.04801 15.3148 3.14404 11.7041C5.24007 8.09342 8.09342 5.24007 11.7041 3.14404C15.3148 1.04801 19.2467 0 23.5 0C26.9271 0 29.2526 0.420736 30.4766 1.26221C31.7005 2.10368 32.3125 3.64128 32.3125 5.875C32.3125 6.85417 32.083 7.78743 31.624 8.6748C31.165 9.56217 30.6602 10.2812 30.1094 10.832C29.5586 11.3828 29.0537 12.0024 28.5947 12.6909C28.1357 13.3794 27.9062 14.0449 27.9062 14.6875C27.9062 17.625 29.375 19.0938 32.3125 19.0938C32.9551 19.0938 33.6206 18.8643 34.3091 18.4053C34.9976 17.9463 35.6172 17.4414 36.168 16.8906C36.7188 16.3398 37.4378 15.835 38.3252 15.376C39.2126 14.917 40.1458 14.6875 41.125 14.6875C43.3281 14.6875 44.8581 15.3148 45.7148 16.5693C46.5716 17.8239 47 20.1341 47 23.5C47 26.6823 46.3804 29.7269 45.1411 32.6338C43.9019 35.5407 42.2342 38.0422 40.1382 40.1382C38.0422 42.2342 35.5407 43.9019 32.6338 45.1411C29.7269 46.3804 26.6823 47 23.5 47ZM13.2188 38.1875C14.4427 38.1875 15.4831 37.7591 16.3398 36.9023C17.1966 36.0456 17.625 35.0052 17.625 33.7812C17.625 32.5573 17.1966 31.5169 16.3398 30.6602C15.4831 29.8034 14.4427 29.375 13.2188 29.375C11.9948 29.375 10.9544 29.8034 10.0977 30.6602C9.24089 31.5169 8.8125 32.5573 8.8125 33.7812C8.8125 35.0052 9.24089 36.0456 10.0977 36.9023C10.9544 37.7591 11.9948 38.1875 13.2188 38.1875ZM10.2812 14.6875C9.05729 14.6875 8.01693 15.1159 7.16016 15.9727C6.30339 16.8294 5.875 17.8698 5.875 19.0938C5.875 20.3177 6.30339 21.3581 7.16016 22.2148C8.01693 23.0716 9.05729 23.5 10.2812 23.5C11.5052 23.5 12.5456 23.0716 13.4023 22.2148C14.2591 21.3581 14.6875 20.3177 14.6875 19.0938C14.6875 17.8698 14.2591 16.8294 13.4023 15.9727C12.5456 15.1159 11.5052 14.6875 10.2812 14.6875ZM19.0938 5.875C17.8698 5.875 16.8294 6.30339 15.9727 7.16016C15.1159 8.01693 14.6875 9.05729 14.6875 10.2812C14.6875 11.5052 15.1159 12.5456 15.9727 13.4023C16.8294 14.2591 17.8698 14.6875 19.0938 14.6875C20.3177 14.6875 21.3581 14.2591 22.2148 13.4023C23.0716 12.5456 23.5 11.5052 23.5 10.2812C23.5 9.05729 23.0716 8.01693 22.2148 7.16016C21.3581 6.30339 20.3177 5.875 19.0938 5.875ZM27.9062 32.3125C26.6823 32.3125 25.6419 32.7409 24.7852 33.5977C23.9284 34.4544 23.5 35.4948 23.5 36.7188C23.5 37.9427 23.9284 38.9831 24.7852 39.8398C25.6419 40.6966 26.6823 41.125 27.9062 41.125C29.1302 41.125 30.1706 40.6966 31.0273 39.8398C31.8841 38.9831 32.3125 37.9427 32.3125 36.7188C32.3125 35.4948 31.8841 34.4544 31.0273 33.5977C30.1706 32.7409 29.1302 32.3125 27.9062 32.3125ZM36.7188 23.5C35.4948 23.5 34.4544 23.9284 33.5977 24.7852C32.7409 25.6419 32.3125 26.6823 32.3125 27.9062C32.3125 29.1302 32.7409 30.1706 33.5977 31.0273C34.4544 31.8841 35.4948 32.3125 36.7188 32.3125C37.9427 32.3125 38.9831 31.8841 39.8398 31.0273C40.6966 30.1706 41.125 29.1302 41.125 27.9062C41.125 26.6823 40.6966 25.6419 39.8398 24.7852C38.9831 23.9284 37.9427 23.5 36.7188 23.5Z" fill="#F5E6DE"/>
</svg>
