<?xml version="1.0" encoding="utf-8"?>
<svg width="47" height="47" viewBox="0 0 47 47" fill="none" xmlns="http://www.w3.org/2000/svg">
<path fill-rule="evenodd" clip-rule="evenodd" d="M4.40625 5.875H42.5938L44.0625 7.34375V26.4375H41.125V17.625H5.875V38.1875H26.4375V41.125H4.40625L2.9375 39.6562V7.34375L4.40625 5.875ZM5.875 14.6875H41.125V8.8125H5.875V14.6875ZM20.5625 35.25V32.0364C20.0633 31.855 19.5978 31.5919 19.1848 31.2579L16.4089 32.8413L14.9401 30.315L17.6926 28.7082C17.5985 28.1767 17.5985 27.6329 17.6926 27.1014L14.9401 25.4975L16.4089 22.9713L19.1848 24.5575C19.6284 24.205 20.0896 23.9436 20.5625 23.7761V20.5625H23.5V23.7761C24.003 23.9491 24.4699 24.213 24.8777 24.5546L27.6536 22.9713L29.1224 25.4975L26.3699 27.1043C26.4636 27.6348 26.4636 28.1777 26.3699 28.7082L29.1224 30.315L27.6536 32.8413L24.8777 31.255C24.4601 31.5829 23.9957 31.8463 23.5 32.0364V35.25H20.5625ZM19.8281 27.9062C19.8281 28.5173 20.0426 29.0372 20.4714 29.4661C20.6737 29.6742 20.9164 29.8386 21.1847 29.9493C21.453 30.0599 21.7411 30.1144 22.0312 30.1094C22.3214 30.1144 22.6095 30.0599 22.8778 29.9493C23.1461 29.8386 23.3888 29.6742 23.5911 29.4661C23.7992 29.2638 23.9636 29.0211 24.0743 28.7528C24.1849 28.4845 24.2394 28.1964 24.2344 27.9062C24.2394 27.6161 24.1849 27.328 24.0743 27.0597C23.9636 26.7914 23.7992 26.5487 23.5911 26.3464C23.3888 26.1383 23.1461 25.9739 22.8778 25.8632C22.6095 25.7526 22.3214 25.6981 22.0312 25.7031C21.7411 25.6981 21.453 25.7526 21.1847 25.8632C20.9164 25.9739 20.6737 26.1383 20.4714 26.3464C20.2633 26.5487 20.0989 26.7914 19.9882 27.0597C19.8776 27.328 19.8231 27.6161 19.8281 27.9062ZM35.4967 44.0625V40.8489C34.9976 40.6674 34.5321 40.4044 34.1191 40.0704L31.3431 41.6538L29.8744 39.1275L32.6297 37.5207C32.5358 36.9892 32.5358 36.4454 32.6297 35.9139L29.8744 34.31L31.3431 31.7837L34.1191 33.37C34.5626 33.0175 35.0238 32.7561 35.4997 32.5886V29.375H38.4372V32.5886C38.939 32.7623 39.4049 33.0261 39.8119 33.3671L42.5879 31.7837L44.0566 34.31L41.3042 35.9168C41.3983 36.4473 41.3983 36.9902 41.3042 37.5207L44.0566 39.1275L42.5879 41.6538L39.8119 40.0675C39.3944 40.3954 38.93 40.6588 38.4342 40.8489V44.0625H35.4967ZM34.7624 36.7188C34.7624 37.3298 34.9768 37.8497 35.4057 38.2786C35.6079 38.4867 35.8507 38.6511 36.119 38.7618C36.3872 38.8724 36.6753 38.9269 36.9655 38.9219C37.2557 38.9269 37.5438 38.8724 37.812 38.7618C38.0803 38.6511 38.3231 38.4867 38.5253 38.2786C38.7339 38.0766 38.8989 37.8339 39.0101 37.5656C39.1213 37.2973 39.1762 37.0091 39.1716 36.7188C39.1762 36.4284 39.1213 36.1402 39.0101 35.8719C38.8989 35.6036 38.7339 35.3609 38.5253 35.1589C38.3234 34.9512 38.0811 34.787 37.8134 34.6763C37.5456 34.5657 37.2581 34.511 36.9684 34.5156C36.6778 34.5102 36.3891 34.5645 36.1203 34.6751C35.8515 34.7858 35.6083 34.9505 35.4057 35.1589C35.1976 35.3612 35.0331 35.6039 34.9225 35.8722C34.8118 36.1405 34.7573 36.4286 34.7624 36.7188Z" fill="#F5E6DE"/>
</svg>
