<?xml version="1.0" encoding="utf-8"?>
<svg width="64" height="64" viewBox="0 0 64 64" fill="none" xmlns="http://www.w3.org/2000/svg">
<path d="M13.3333 29.3333H34.6667V34.6667H13.3333V42.6667L0 32L13.3333 21.3333V29.3333ZM10.6667 48H17.888C20.9672 50.7155 24.7645 52.4849 28.8243 53.0958C32.8842 53.7067 37.0341 53.1332 40.776 51.444C44.518 49.7548 47.693 47.0218 49.9202 43.5728C52.1473 40.1239 53.332 36.1055 53.332 32C53.332 27.8944 52.1473 23.8761 49.9202 20.4271C47.693 16.9782 44.518 14.2452 40.776 12.556C37.0341 10.8668 32.8842 10.2932 28.8243 10.9041C24.7645 11.515 20.9672 13.2844 17.888 16H10.6667C13.1484 12.6858 16.3689 9.99602 20.0722 8.14437C23.7755 6.29271 27.8596 5.33021 32 5.33332C46.728 5.33332 58.6667 17.272 58.6667 32C58.6667 46.728 46.728 58.6667 32 58.6667C27.8596 58.6698 23.7755 57.7073 20.0722 55.8556C16.3689 54.004 13.1484 51.3142 10.6667 48Z" fill="#F5E6DE"/>
</svg>
