<?xml version="1.0" encoding="utf-8"?>
<svg width="60" height="62" viewBox="0 0 60 62" fill="none" xmlns="http://www.w3.org/2000/svg">
<path d="M30.5684 4.96481C21.6328 4.94059 13.7695 9.71774 9.27538 16.9349C9.07616 17.2558 9.29882 17.6797 9.66796 17.6797H13.7871C14.0684 17.6797 14.332 17.5525 14.5078 17.3285C14.918 16.8138 15.3574 16.3174 15.8203 15.8451C17.7305 13.8773 19.9512 12.3273 22.4238 11.2496C24.9785 10.1355 27.6973 9.56638 30.5039 9.56638C33.3105 9.56638 36.0293 10.1295 38.584 11.2496C41.0566 12.3273 43.2773 13.8773 45.1875 15.8451C47.0977 17.8129 48.5918 20.1076 49.6406 22.6566C50.7246 25.2965 51.2695 28.0998 51.2695 31C51.2695 33.9002 50.7188 36.7035 49.6406 39.3433C48.5977 41.8924 47.0977 44.1871 45.1875 46.1549C43.2773 48.1226 41.0566 49.6726 38.584 50.7504C36.0273 51.8662 33.2793 52.4387 30.5039 52.4336C27.6973 52.4336 24.9785 51.8644 22.4238 50.7504C19.956 49.6737 17.7135 48.1131 15.8203 46.1549C15.3574 45.6765 14.9238 45.1801 14.5078 44.6715C14.332 44.4474 14.0625 44.3203 13.7871 44.3203H9.66796C9.29882 44.3203 9.0703 44.7441 9.27538 45.065C13.7637 52.264 21.5918 57.0351 30.5039 57.0351C44.3438 57.0351 55.582 45.5252 55.7227 31.2664C55.8633 16.7775 44.6074 5.00114 30.5684 4.96481ZM23.1457 37.7812V33.1797H4.74725C4.48944 33.1797 4.2785 32.9617 4.2785 32.6953V29.3047C4.2785 29.0383 4.48944 28.8203 4.74725 28.8203H23.1457V24.2187C23.1457 23.8131 23.6027 23.583 23.9074 23.8373L32.2219 30.6185C32.2779 30.6638 32.3232 30.7217 32.3544 30.7878C32.3855 30.8539 32.4017 30.9265 32.4017 31C32.4017 31.0735 32.3855 31.146 32.3544 31.2121C32.3232 31.2782 32.2779 31.3361 32.2219 31.3814L23.9074 38.1627C23.6027 38.4109 23.1457 38.1869 23.1457 37.7812Z" fill="#F5E6DE"/>
</svg>
