<?xml version="1.0" encoding="utf-8"?>
<svg width="205" height="34" viewBox="0 0 205 34" fill="none" xmlns="http://www.w3.org/2000/svg">
<path d="M10.52 7.08V22.728C13.144 22.728 14.936 22.168 15.896 21.048C16.856 19.896 17.336 17.896 17.336 15.048C17.336 12.2 16.856 10.168 15.896 8.952C14.936 7.704 13.144 7.08 10.52 7.08ZM12.92 32.04V33H0.92V32.04H3.32V7.08H0.92V6.12H10.472C19.88 5.672 24.584 8.696 24.584 15.192C24.584 18.072 23.4 20.264 21.032 21.768C18.664 23.272 15.16 23.912 10.52 23.688V32.04H12.92ZM35.8869 30.12C36.5909 31.72 37.8069 32.52 39.5349 32.52C41.2629 32.52 42.4949 31.704 43.2309 30.072C43.9669 28.44 44.3349 25.752 44.3349 22.008C44.3349 18.232 43.9669 15.528 43.2309 13.896C42.4949 12.232 41.2629 11.4 39.5349 11.4C37.8069 11.4 36.5909 12.232 35.8869 13.896C35.1829 15.528 34.8309 18.232 34.8309 22.008C34.8309 25.784 35.1829 28.488 35.8869 30.12ZM39.4389 33.48C36.3989 33.48 33.6469 32.488 31.1829 30.504C28.7189 28.52 27.4869 25.704 27.4869 22.056C27.4869 20.104 27.8389 18.36 28.5429 16.824C29.2789 15.288 30.2389 14.072 31.4229 13.176C32.6389 12.28 33.9349 11.608 35.3109 11.16C36.6869 10.68 38.0949 10.44 39.5349 10.44C40.9749 10.44 42.3829 10.68 43.7589 11.16C45.1669 11.608 46.4629 12.28 47.6469 13.176C48.8629 14.072 49.8389 15.288 50.5749 16.824C51.3109 18.36 51.6789 20.088 51.6789 22.008C51.6789 23.928 51.3109 25.64 50.5749 27.144C49.8389 28.648 48.8629 29.848 47.6469 30.744C45.2149 32.568 42.4789 33.48 39.4389 33.48ZM67.0606 33H55.0606V32.04H57.4606V11.88H55.0606V10.92H64.6606V16.632C64.9486 15.064 65.4606 13.784 66.1966 12.792C66.9646 11.8 67.7966 11.144 68.6926 10.824C69.6206 10.504 70.5006 10.344 71.3326 10.344C72.1966 10.344 73.0126 10.504 73.7806 10.824C74.5806 11.112 75.1726 11.72 75.5566 12.648C75.9406 13.544 75.9566 14.456 75.6046 15.384C75.2526 16.28 74.6286 16.92 73.7326 17.304C72.8686 17.688 72.0686 17.736 71.3326 17.448C70.5966 17.16 70.0686 16.776 69.7486 16.296C69.4286 15.784 69.2046 15.304 69.0766 14.856C68.7566 13.672 68.3246 13.08 67.7806 13.08C67.1726 13.08 66.5006 14.136 65.7646 16.248C65.0286 18.328 64.6606 20.536 64.6606 22.872V32.04H67.0606V33ZM87.0958 11.88V23.592C87.0958 26.344 87.2078 28.024 87.4318 28.632C87.6558 29.208 87.8958 29.704 88.1518 30.12C88.6318 30.952 89.4638 31.368 90.6478 31.368C91.8638 31.368 92.7118 31.208 93.1918 30.888V31.848C91.6558 32.936 89.9758 33.48 88.1518 33.48C85.4638 33.48 83.4158 32.84 82.0078 31.56C80.5998 30.28 79.8958 27.992 79.8958 24.696V11.88H76.3438V10.92H79.8958C81.4318 10.664 82.7918 9.928 83.9758 8.712C85.1598 7.464 85.9758 5.752 86.4238 3.576H87.0958V10.92H92.6638V11.88H87.0958ZM105.44 21.96C105.44 18.184 106.544 15.32 108.752 13.368C110.96 11.416 113.76 10.44 117.152 10.44C120.576 10.44 123.12 11.304 124.784 13.032C126.448 14.728 127.04 16.488 126.56 18.312C126.304 19.304 125.76 20.04 124.928 20.52C124.128 20.968 123.248 21.08 122.288 20.856C120.272 20.376 119.264 19.208 119.264 17.352C119.264 16.872 119.312 16.152 119.408 15.192C119.536 14.2 119.584 13.48 119.552 13.032C119.52 12.584 119.424 12.232 119.264 11.976C118.944 11.432 118.192 11.224 117.008 11.352C114.128 11.8 112.688 15.336 112.688 21.96C112.688 28.552 115.04 31.848 119.744 31.848C120.832 31.848 121.936 31.56 123.056 30.984C124.176 30.408 125.008 29.72 125.552 28.92L126.224 29.4C125.488 30.616 124.384 31.592 122.912 32.328C121.44 33.064 119.792 33.432 117.968 33.432C109.616 33.432 105.44 29.608 105.44 21.96ZM153.341 32.04C153.021 32.36 152.413 32.648 151.517 32.904C150.621 33.128 149.581 33.24 148.397 33.24C145.773 33.24 144.125 32.456 143.453 30.888C141.853 32.552 139.405 33.384 136.109 33.384C134.349 33.384 132.893 32.984 131.741 32.184C130.621 31.352 130.061 30.136 130.061 28.536C130.061 26.392 130.893 24.744 132.557 23.592C134.221 22.408 137.133 21.576 141.293 21.096L143.213 20.856V18.504C143.213 15.72 143.005 13.848 142.589 12.888C142.173 11.928 141.341 11.448 140.093 11.448C138.877 11.448 138.093 11.624 137.741 11.976C137.389 12.296 137.261 12.68 137.357 13.128C137.453 13.544 137.613 14.104 137.837 14.808C138.061 15.512 138.173 16.072 138.173 16.488C138.173 17.48 137.821 18.328 137.117 19.032C136.445 19.704 135.613 20.04 134.621 20.04C133.661 20.04 132.829 19.704 132.125 19.032C131.421 18.328 131.069 17.48 131.069 16.488C131.069 14.856 131.901 13.464 133.565 12.312C135.261 11.128 137.773 10.536 141.101 10.536C144.461 10.536 146.845 11.192 148.253 12.504C149.693 13.816 150.413 16.136 150.413 19.464V28.104C150.413 29.8 150.621 30.872 151.037 31.32C151.453 31.736 152.221 31.816 153.341 31.56V32.04ZM136.733 27.576C136.893 28.792 137.341 29.736 138.077 30.408C138.813 31.048 139.661 31.368 140.621 31.368C141.613 31.368 142.477 30.888 143.213 29.928V21.768L141.485 22.008C140.013 22.2 138.813 22.76 137.885 23.688C136.989 24.616 136.605 25.912 136.733 27.576ZM168.217 33H156.217V32.04H158.617V11.88H156.217V10.92H165.817V16.632C166.105 15.064 166.617 13.784 167.353 12.792C168.121 11.8 168.953 11.144 169.849 10.824C170.777 10.504 171.657 10.344 172.489 10.344C173.353 10.344 174.169 10.504 174.937 10.824C175.737 11.112 176.329 11.72 176.713 12.648C177.097 13.544 177.113 14.456 176.761 15.384C176.409 16.28 175.785 16.92 174.889 17.304C174.025 17.688 173.225 17.736 172.489 17.448C171.753 17.16 171.225 16.776 170.905 16.296C170.585 15.784 170.361 15.304 170.233 14.856C169.913 13.672 169.481 13.08 168.937 13.08C168.329 13.08 167.657 14.136 166.921 16.248C166.185 18.328 165.817 20.536 165.817 22.872V32.04H168.217V33ZM188.492 33.576C185.9 33.576 183.66 32.552 181.772 30.504C179.884 28.456 178.94 25.56 178.94 21.816C178.94 18.072 179.868 15.144 181.724 13.032C183.58 10.92 185.836 9.864 188.492 9.864C189.804 9.864 191.036 10.136 192.188 10.68C193.34 11.224 194.172 12.04 194.684 13.128V1.8H192.284V0.839999H201.884V32.04H204.284V33H194.684V30.792C193.82 32.648 191.756 33.576 188.492 33.576ZM194.684 22.488V14.568C193.82 12.84 192.684 11.976 191.276 11.976C189.9 11.976 188.716 12.776 187.724 14.376C186.732 15.976 186.236 18.52 186.236 22.008C186.236 25.464 186.748 27.992 187.772 29.592C188.796 31.192 190.028 31.88 191.468 31.656C192.268 31.528 192.876 31.272 193.292 30.888C194.22 29.992 194.684 27.192 194.684 22.488Z" fill="#F5E6DE"/>
</svg>
