<?xml version="1.0" encoding="utf-8"?>
<svg width="51" height="51" viewBox="0 0 51 51" fill="none" xmlns="http://www.w3.org/2000/svg">
<path d="M46.2187 12.6653C44.6947 13.3228 43.0362 13.7959 41.3279 13.9802C43.1015 12.9265 44.4297 11.2618 45.0633 9.29854C43.399 10.2886 41.5757 10.9829 39.6744 11.3505C38.8798 10.501 37.9187 9.82418 36.851 9.36233C35.7833 8.90048 34.632 8.66345 33.4687 8.66602C28.7622 8.66602 24.9771 12.4811 24.9771 17.1627C24.9771 17.8201 25.0567 18.4775 25.1862 19.1101C18.1389 18.7415 11.8535 15.3747 7.67491 10.2199C6.91352 11.5204 6.51453 13.0012 6.51944 14.5081C6.51944 17.4565 8.01856 20.0564 10.3046 21.5854C8.9574 21.5323 7.64175 21.162 6.46465 20.5046V20.6092C6.46465 24.738 9.38321 28.1596 13.273 28.9465C12.5426 29.1362 11.7913 29.2333 11.0367 29.2354C10.4839 29.2354 9.96094 29.1806 9.43301 29.1059C10.5088 32.4727 13.6415 34.9181 17.3719 34.9978C14.4533 37.2838 10.7977 38.6285 6.82823 38.6285C6.11602 38.6285 5.4586 38.6036 4.77628 38.5239C8.54151 40.9395 13.009 42.334 17.8201 42.334C33.4389 42.334 41.9853 29.3947 41.9853 18.1638C41.9853 17.7952 41.9853 17.4267 41.9604 17.0581C43.614 15.8479 45.0633 14.3487 46.2187 12.6653Z" fill="#757575"/>
</svg>
