<?xml version="1.0" encoding="utf-8"?>
<svg width="46" height="46" viewBox="0 0 46 46" fill="none" xmlns="http://www.w3.org/2000/svg">
<g clip-path="url(#clip0)">
<path d="M3.26568 6.98682H36.3652C38.1918 6.98682 39.6863 8.43126 39.6863 10.2646V31.4868C39.6863 33.3202 38.1918 34.8757 36.3652 34.8757H23.4686V40.3757H32.8782C34.2619 40.3757 34.3726 44.9313 34.5387 45.0979H5.14759C5.14759 45.0979 5.14759 40.3757 6.80811 40.3757H16.2177V34.8757H3.26568C1.43911 34.8757 0 33.3202 0 31.4868V10.2646C0 8.43126 1.43911 6.98682 3.26568 6.98682ZM3.26568 31.4868H36.3652V10.2646H3.26568V31.4868Z" fill="#F5E6DE"/>
</g>
<g clip-path="url(#clip1)">
<path d="M29.5902 14.7136C27.6819 14.8363 25.9501 15.5631 24.9674 18.1525C24.8557 18.4478 24.5869 18.6271 24.2735 18.6271C23.745 18.6271 22.1112 17.311 21.6455 16.9933C21.646 20.9102 23.4501 24.3529 27.7343 24.3529C31.3425 24.3529 33.8225 22.271 33.8225 18.6362C33.8225 18.4883 33.7916 18.347 33.7764 18.2019L29.5902 14.7136ZM43.4253 0C42.7042 0 42.0283 0.319157 41.5127 0.782433C31.7901 9.46768 30.7784 9.67173 30.7784 12.2283C30.7784 12.8799 30.933 13.5011 31.1936 14.0691L34.2292 16.5985C34.5721 16.6841 34.9255 16.7426 35.2941 16.7426C38.2484 16.7426 39.9607 14.5799 45.3378 4.5443C45.6888 3.86175 45.999 3.1245 45.999 2.35681C45.999 0.981728 44.7623 0 43.4253 0Z" fill="#F5E6DE"/>
</g>
<defs>
<clipPath id="clip0">
<rect width="39.6863" height="38.3333" fill="white" transform="translate(0 6.76465)"/>
</clipPath>
<clipPath id="clip1">
<rect width="24.3529" height="24.3529" fill="white" transform="translate(21.6471)"/>
</clipPath>
</defs>
</svg>
